<mxfile host="app.diagrams.net" modified="2022-12-22T20:08:23.098Z" agent="5.0 (Windows NT 10.0; Win64; x64) AppleWebKit/537.36 (KHTML, like Gecko) Chrome/108.0.0.0 Safari/537.36" etag="wzdQd9EkaGGv0xSr1nbR" version="20.6.0" type="github">
  <diagram id="C5RBs43oDa-KdzZeNtuy" name="Test.py">
    <mxGraphModel dx="2406" dy="1246" grid="1" gridSize="10" guides="1" tooltips="1" connect="1" arrows="1" fold="1" page="1" pageScale="1" pageWidth="1169" pageHeight="827" math="0" shadow="0">
      <root>
        <mxCell id="WIyWlLk6GJQsqaUBKTNV-0" />
        <mxCell id="WIyWlLk6GJQsqaUBKTNV-1" parent="WIyWlLk6GJQsqaUBKTNV-0" />
        <mxCell id="kF8S6U2vxt8Kwid--zTk-196" value="Vending_projekt_plokkskeem" style="shape=table;childLayout=tableLayout;startSize=40;collapsible=0;recursiveResize=0;expand=0;strokeWidth=2;fontSize=20;strokeColor=#000000;fontStyle=1" parent="WIyWlLk6GJQsqaUBKTNV-1" vertex="1">
          <mxGeometry x="-190" y="70" width="2260" height="1389.5" as="geometry" />
        </mxCell>
        <mxCell id="kF8S6U2vxt8Kwid--zTk-197" value="" style="shape=tableRow;horizontal=0;swimlaneHead=0;swimlaneBody=0;top=0;left=0;bottom=0;right=0;dropTarget=0;fontStyle=0;fillColor=none;points=[[0,0.5],[1,0.5]];portConstraint=eastwest;startSize=0;collapsible=0;recursiveResize=0;expand=0;" parent="kF8S6U2vxt8Kwid--zTk-196" vertex="1">
          <mxGeometry y="40" width="2260" height="1350" as="geometry" />
        </mxCell>
        <mxCell id="kF8S6U2vxt8Kwid--zTk-198" value="Programmi start" style="swimlane;swimlaneHead=0;swimlaneBody=0;fontStyle=1;connectable=0;fillColor=none;startSize=50;collapsible=0;recursiveResize=0;expand=0;labelBorderColor=default;fontSize=18;" parent="kF8S6U2vxt8Kwid--zTk-197" vertex="1">
          <mxGeometry width="340" height="1350" as="geometry">
            <mxRectangle width="340" height="1350" as="alternateBounds" />
          </mxGeometry>
        </mxCell>
        <mxCell id="ykiYjJNZv1uQ2afATDwy-26" value="&lt;b&gt;&lt;font style=&quot;font-size: 13px;&quot;&gt;Start&lt;/font&gt;&lt;/b&gt;" style="ellipse;whiteSpace=wrap;html=1;" parent="kF8S6U2vxt8Kwid--zTk-198" vertex="1">
          <mxGeometry x="117.88" y="60" width="100" height="50" as="geometry" />
        </mxCell>
        <mxCell id="IJdbN-bh61W4Vu56taIt-15" value="" style="edgeStyle=orthogonalEdgeStyle;rounded=0;orthogonalLoop=1;jettySize=auto;html=1;fontSize=13;" edge="1" parent="kF8S6U2vxt8Kwid--zTk-198" source="ykiYjJNZv1uQ2afATDwy-27" target="IJdbN-bh61W4Vu56taIt-12">
          <mxGeometry relative="1" as="geometry" />
        </mxCell>
        <mxCell id="ykiYjJNZv1uQ2afATDwy-27" value="&lt;b style=&quot;font-size: 13px;&quot;&gt;&lt;i&gt;Seadistame skoori muutujad: õiged vastused,&lt;br&gt;valed vastused&lt;/i&gt;&lt;/b&gt;" style="whiteSpace=wrap;html=1;" parent="kF8S6U2vxt8Kwid--zTk-198" vertex="1">
          <mxGeometry x="105.38" y="135" width="125" height="70" as="geometry" />
        </mxCell>
        <mxCell id="ykiYjJNZv1uQ2afATDwy-28" value="" style="edgeStyle=orthogonalEdgeStyle;rounded=0;orthogonalLoop=1;jettySize=auto;html=1;" parent="kF8S6U2vxt8Kwid--zTk-198" source="ykiYjJNZv1uQ2afATDwy-26" target="ykiYjJNZv1uQ2afATDwy-27" edge="1">
          <mxGeometry relative="1" as="geometry" />
        </mxCell>
        <mxCell id="ykiYjJNZv1uQ2afATDwy-29" value="&lt;b&gt;Seadistame mängu pikkus = 5&lt;/b&gt;" style="whiteSpace=wrap;html=1;" parent="kF8S6U2vxt8Kwid--zTk-198" vertex="1">
          <mxGeometry x="107.86999999999999" y="330" width="120" height="60" as="geometry" />
        </mxCell>
        <mxCell id="kF8S6U2vxt8Kwid--zTk-0" value="&lt;b&gt;&lt;font style=&quot;font-size: 13px;&quot;&gt;Seadista kõik lehed täisekraanile&lt;/font&gt;&lt;/b&gt;" style="whiteSpace=wrap;html=1;" parent="kF8S6U2vxt8Kwid--zTk-198" vertex="1">
          <mxGeometry x="107.89" y="410" width="120" height="60" as="geometry" />
        </mxCell>
        <mxCell id="kF8S6U2vxt8Kwid--zTk-1" value="" style="edgeStyle=orthogonalEdgeStyle;rounded=0;orthogonalLoop=1;jettySize=auto;html=1;" parent="kF8S6U2vxt8Kwid--zTk-198" source="ykiYjJNZv1uQ2afATDwy-29" target="kF8S6U2vxt8Kwid--zTk-0" edge="1">
          <mxGeometry relative="1" as="geometry" />
        </mxCell>
        <mxCell id="kF8S6U2vxt8Kwid--zTk-2" value="&lt;b&gt;&lt;font style=&quot;font-size: 13px;&quot;&gt;Kuva avaleht&lt;/font&gt;&lt;/b&gt;" style="whiteSpace=wrap;html=1;" parent="kF8S6U2vxt8Kwid--zTk-198" vertex="1">
          <mxGeometry x="106.82" y="490" width="122.12" height="35" as="geometry" />
        </mxCell>
        <mxCell id="kF8S6U2vxt8Kwid--zTk-3" value="" style="edgeStyle=orthogonalEdgeStyle;rounded=0;orthogonalLoop=1;jettySize=auto;html=1;entryX=0.5;entryY=0;entryDx=0;entryDy=0;" parent="kF8S6U2vxt8Kwid--zTk-198" source="kF8S6U2vxt8Kwid--zTk-0" target="kF8S6U2vxt8Kwid--zTk-2" edge="1">
          <mxGeometry relative="1" as="geometry">
            <mxPoint x="170" y="460" as="targetPoint" />
          </mxGeometry>
        </mxCell>
        <mxCell id="IJdbN-bh61W4Vu56taIt-5" value="" style="edgeStyle=orthogonalEdgeStyle;rounded=0;orthogonalLoop=1;jettySize=auto;html=1;" edge="1" parent="kF8S6U2vxt8Kwid--zTk-198" source="kF8S6U2vxt8Kwid--zTk-4" target="kF8S6U2vxt8Kwid--zTk-8">
          <mxGeometry relative="1" as="geometry" />
        </mxCell>
        <mxCell id="kF8S6U2vxt8Kwid--zTk-4" value="&lt;b&gt;&lt;font style=&quot;font-size: 13px;&quot;&gt;Kuva tervitustekst&lt;/font&gt;&lt;/b&gt;" style="whiteSpace=wrap;html=1;" parent="kF8S6U2vxt8Kwid--zTk-198" vertex="1">
          <mxGeometry x="106.80999999999999" y="550" width="122.12" height="35" as="geometry" />
        </mxCell>
        <mxCell id="kF8S6U2vxt8Kwid--zTk-5" value="" style="edgeStyle=orthogonalEdgeStyle;rounded=0;orthogonalLoop=1;jettySize=auto;html=1;exitX=0.5;exitY=1;exitDx=0;exitDy=0;" parent="kF8S6U2vxt8Kwid--zTk-198" source="kF8S6U2vxt8Kwid--zTk-2" target="kF8S6U2vxt8Kwid--zTk-4" edge="1">
          <mxGeometry relative="1" as="geometry">
            <mxPoint x="170" y="500" as="sourcePoint" />
          </mxGeometry>
        </mxCell>
        <mxCell id="IJdbN-bh61W4Vu56taIt-7" value="" style="edgeStyle=orthogonalEdgeStyle;rounded=0;orthogonalLoop=1;jettySize=auto;html=1;" edge="1" parent="kF8S6U2vxt8Kwid--zTk-198" source="kF8S6U2vxt8Kwid--zTk-6" target="kF8S6U2vxt8Kwid--zTk-17">
          <mxGeometry relative="1" as="geometry" />
        </mxCell>
        <mxCell id="kF8S6U2vxt8Kwid--zTk-6" value="&lt;b&gt;&lt;font style=&quot;font-size: 13px;&quot;&gt;Kuva nupp &quot;alusta mänguga&quot;&lt;/font&gt;&lt;/b&gt;" style="whiteSpace=wrap;html=1;" parent="kF8S6U2vxt8Kwid--zTk-198" vertex="1">
          <mxGeometry x="107.86999999999999" y="690" width="120" height="60" as="geometry" />
        </mxCell>
        <mxCell id="IJdbN-bh61W4Vu56taIt-8" value="" style="edgeStyle=orthogonalEdgeStyle;rounded=0;orthogonalLoop=1;jettySize=auto;html=1;" edge="1" parent="kF8S6U2vxt8Kwid--zTk-198" source="kF8S6U2vxt8Kwid--zTk-8" target="kF8S6U2vxt8Kwid--zTk-6">
          <mxGeometry relative="1" as="geometry" />
        </mxCell>
        <mxCell id="kF8S6U2vxt8Kwid--zTk-8" value="&lt;b&gt;&lt;font style=&quot;font-size: 13px;&quot;&gt;Kuva nupp &quot;sulge leht 1&quot;&lt;/font&gt;&lt;/b&gt;" style="whiteSpace=wrap;html=1;" parent="kF8S6U2vxt8Kwid--zTk-198" vertex="1">
          <mxGeometry x="107.88" y="610" width="120" height="60" as="geometry" />
        </mxCell>
        <mxCell id="kF8S6U2vxt8Kwid--zTk-13" value="&lt;b&gt;&lt;font style=&quot;font-size: 13px;&quot;&gt;Peida avaleht&lt;/font&gt;&lt;/b&gt;" style="whiteSpace=wrap;html=1;" parent="kF8S6U2vxt8Kwid--zTk-198" vertex="1">
          <mxGeometry x="107.86999999999999" y="920" width="120" height="60" as="geometry" />
        </mxCell>
        <mxCell id="kF8S6U2vxt8Kwid--zTk-15" value="&lt;b&gt;&lt;font style=&quot;font-size: 13px;&quot;&gt;Ava vanuste leht&lt;/font&gt;&lt;/b&gt;" style="whiteSpace=wrap;html=1;" parent="kF8S6U2vxt8Kwid--zTk-198" vertex="1">
          <mxGeometry x="107.88" y="1000" width="120" height="60" as="geometry" />
        </mxCell>
        <mxCell id="kF8S6U2vxt8Kwid--zTk-16" value="" style="edgeStyle=orthogonalEdgeStyle;rounded=0;orthogonalLoop=1;jettySize=auto;html=1;" parent="kF8S6U2vxt8Kwid--zTk-198" source="kF8S6U2vxt8Kwid--zTk-13" target="kF8S6U2vxt8Kwid--zTk-15" edge="1">
          <mxGeometry relative="1" as="geometry" />
        </mxCell>
        <mxCell id="kF8S6U2vxt8Kwid--zTk-21" value="" style="edgeStyle=orthogonalEdgeStyle;rounded=0;orthogonalLoop=1;jettySize=auto;html=1;" parent="kF8S6U2vxt8Kwid--zTk-198" source="kF8S6U2vxt8Kwid--zTk-17" target="kF8S6U2vxt8Kwid--zTk-13" edge="1">
          <mxGeometry relative="1" as="geometry" />
        </mxCell>
        <mxCell id="kF8S6U2vxt8Kwid--zTk-17" value="&lt;b&gt;&lt;font style=&quot;font-size: 13px;&quot;&gt;Alusta mänguga?&lt;/font&gt;&lt;/b&gt;" style="rhombus;whiteSpace=wrap;html=1;" parent="kF8S6U2vxt8Kwid--zTk-198" vertex="1">
          <mxGeometry x="116.76" y="790" width="102.25" height="92.5" as="geometry" />
        </mxCell>
        <mxCell id="kF8S6U2vxt8Kwid--zTk-22" value="&lt;span style=&quot;font-size: 13px;&quot;&gt;Ei&lt;/span&gt;" style="text;html=1;strokeColor=none;fillColor=none;align=center;verticalAlign=middle;whiteSpace=wrap;rounded=0;fontStyle=1;fontSize=13;" parent="kF8S6U2vxt8Kwid--zTk-198" vertex="1">
          <mxGeometry x="70" y="810" width="60" height="30" as="geometry" />
        </mxCell>
        <mxCell id="kF8S6U2vxt8Kwid--zTk-23" value="&lt;b&gt;&lt;font style=&quot;font-size: 13px;&quot;&gt;Jah&lt;/font&gt;&lt;/b&gt;" style="text;html=1;strokeColor=none;fillColor=none;align=center;verticalAlign=middle;whiteSpace=wrap;rounded=0;" parent="kF8S6U2vxt8Kwid--zTk-198" vertex="1">
          <mxGeometry x="180" y="870" width="60" height="30" as="geometry" />
        </mxCell>
        <mxCell id="kF8S6U2vxt8Kwid--zTk-24" value="&lt;b&gt;&lt;font style=&quot;font-size: 13px;&quot;&gt;Kuva tekst kirjuta oma vanus&lt;/font&gt;&lt;/b&gt;" style="whiteSpace=wrap;html=1;" parent="kF8S6U2vxt8Kwid--zTk-198" vertex="1">
          <mxGeometry x="107.88000000000001" y="1090" width="120" height="60" as="geometry" />
        </mxCell>
        <mxCell id="kF8S6U2vxt8Kwid--zTk-25" value="" style="edgeStyle=orthogonalEdgeStyle;rounded=0;orthogonalLoop=1;jettySize=auto;html=1;" parent="kF8S6U2vxt8Kwid--zTk-198" source="kF8S6U2vxt8Kwid--zTk-15" target="kF8S6U2vxt8Kwid--zTk-24" edge="1">
          <mxGeometry relative="1" as="geometry" />
        </mxCell>
        <mxCell id="IJdbN-bh61W4Vu56taIt-16" value="" style="edgeStyle=orthogonalEdgeStyle;rounded=0;orthogonalLoop=1;jettySize=auto;html=1;fontSize=13;entryX=0.5;entryY=0;entryDx=0;entryDy=0;" edge="1" parent="kF8S6U2vxt8Kwid--zTk-198" source="IJdbN-bh61W4Vu56taIt-12" target="ykiYjJNZv1uQ2afATDwy-29">
          <mxGeometry relative="1" as="geometry" />
        </mxCell>
        <mxCell id="IJdbN-bh61W4Vu56taIt-12" value="Käivita LEDid" style="rounded=0;whiteSpace=wrap;html=1;fontStyle=1;fontSize=13;" vertex="1" parent="kF8S6U2vxt8Kwid--zTk-198">
          <mxGeometry x="107.86999999999999" y="240" width="120" height="60" as="geometry" />
        </mxCell>
        <mxCell id="kF8S6U2vxt8Kwid--zTk-199" value="Vanuse valik" style="swimlane;swimlaneHead=0;swimlaneBody=0;fontStyle=1;connectable=0;fillColor=none;startSize=50;collapsible=0;recursiveResize=0;expand=0;labelBorderColor=default;labelBackgroundColor=none;fontSize=16;" parent="kF8S6U2vxt8Kwid--zTk-197" vertex="1">
          <mxGeometry x="340" width="368" height="1350" as="geometry">
            <mxRectangle width="368" height="1350" as="alternateBounds" />
          </mxGeometry>
        </mxCell>
        <mxCell id="kF8S6U2vxt8Kwid--zTk-27" value="Kuva vanusevaliku nupud&amp;nbsp;" style="whiteSpace=wrap;html=1;fontStyle=1;fontSize=13;" parent="kF8S6U2vxt8Kwid--zTk-199" vertex="1">
          <mxGeometry x="117" y="87.5" width="120" height="60" as="geometry" />
        </mxCell>
        <mxCell id="kF8S6U2vxt8Kwid--zTk-32" value="Kuva nupp sulge leht 2" style="whiteSpace=wrap;html=1;fontStyle=1;fontSize=13;" parent="kF8S6U2vxt8Kwid--zTk-199" vertex="1">
          <mxGeometry x="117" y="177.5" width="120" height="60" as="geometry" />
        </mxCell>
        <mxCell id="kF8S6U2vxt8Kwid--zTk-33" value="" style="edgeStyle=orthogonalEdgeStyle;rounded=0;orthogonalLoop=1;jettySize=auto;html=1;fontStyle=1;fontSize=13;" parent="kF8S6U2vxt8Kwid--zTk-199" source="kF8S6U2vxt8Kwid--zTk-27" target="kF8S6U2vxt8Kwid--zTk-32" edge="1">
          <mxGeometry relative="1" as="geometry" />
        </mxCell>
        <mxCell id="kF8S6U2vxt8Kwid--zTk-34" value="&amp;lt;=12" style="rhombus;whiteSpace=wrap;html=1;fontStyle=1;fontSize=13;" parent="kF8S6U2vxt8Kwid--zTk-199" vertex="1">
          <mxGeometry x="137" y="277.5" width="80" height="80" as="geometry" />
        </mxCell>
        <mxCell id="kF8S6U2vxt8Kwid--zTk-35" value="" style="edgeStyle=orthogonalEdgeStyle;rounded=0;orthogonalLoop=1;jettySize=auto;html=1;fontStyle=1;fontSize=13;" parent="kF8S6U2vxt8Kwid--zTk-199" source="kF8S6U2vxt8Kwid--zTk-32" target="kF8S6U2vxt8Kwid--zTk-34" edge="1">
          <mxGeometry relative="1" as="geometry" />
        </mxCell>
        <mxCell id="kF8S6U2vxt8Kwid--zTk-36" value="13-18" style="rhombus;whiteSpace=wrap;html=1;fontStyle=1;fontSize=13;" parent="kF8S6U2vxt8Kwid--zTk-199" vertex="1">
          <mxGeometry x="137" y="377.5" width="80" height="80" as="geometry" />
        </mxCell>
        <mxCell id="kF8S6U2vxt8Kwid--zTk-37" value="" style="edgeStyle=orthogonalEdgeStyle;rounded=0;orthogonalLoop=1;jettySize=auto;html=1;fontStyle=1;fontSize=13;" parent="kF8S6U2vxt8Kwid--zTk-199" source="kF8S6U2vxt8Kwid--zTk-34" target="kF8S6U2vxt8Kwid--zTk-36" edge="1">
          <mxGeometry relative="1" as="geometry" />
        </mxCell>
        <mxCell id="kF8S6U2vxt8Kwid--zTk-38" value="&amp;gt;=19" style="rhombus;whiteSpace=wrap;html=1;fontStyle=1;fontSize=13;" parent="kF8S6U2vxt8Kwid--zTk-199" vertex="1">
          <mxGeometry x="137" y="477.5" width="80" height="80" as="geometry" />
        </mxCell>
        <mxCell id="kF8S6U2vxt8Kwid--zTk-39" value="" style="edgeStyle=orthogonalEdgeStyle;rounded=0;orthogonalLoop=1;jettySize=auto;html=1;fontStyle=1;fontSize=13;" parent="kF8S6U2vxt8Kwid--zTk-199" source="kF8S6U2vxt8Kwid--zTk-36" target="kF8S6U2vxt8Kwid--zTk-38" edge="1">
          <mxGeometry relative="1" as="geometry" />
        </mxCell>
        <mxCell id="kF8S6U2vxt8Kwid--zTk-42" value="Salvesta vanusevahemik" style="whiteSpace=wrap;html=1;fontStyle=1;fontSize=13;" parent="kF8S6U2vxt8Kwid--zTk-199" vertex="1">
          <mxGeometry x="122" y="577.5" width="120" height="60" as="geometry" />
        </mxCell>
        <mxCell id="kF8S6U2vxt8Kwid--zTk-43" value="" style="edgeStyle=orthogonalEdgeStyle;rounded=0;orthogonalLoop=1;jettySize=auto;html=1;entryX=1;entryY=0.5;entryDx=0;entryDy=0;fontStyle=1;fontSize=13;" parent="kF8S6U2vxt8Kwid--zTk-199" source="kF8S6U2vxt8Kwid--zTk-34" target="kF8S6U2vxt8Kwid--zTk-42" edge="1">
          <mxGeometry relative="1" as="geometry">
            <Array as="points">
              <mxPoint x="277" y="317.5" />
              <mxPoint x="277" y="607.5" />
            </Array>
          </mxGeometry>
        </mxCell>
        <mxCell id="kF8S6U2vxt8Kwid--zTk-47" value="" style="edgeStyle=orthogonalEdgeStyle;rounded=0;orthogonalLoop=1;jettySize=auto;html=1;entryX=1;entryY=0.5;entryDx=0;entryDy=0;fontStyle=1;fontSize=13;" parent="kF8S6U2vxt8Kwid--zTk-199" source="kF8S6U2vxt8Kwid--zTk-36" target="kF8S6U2vxt8Kwid--zTk-42" edge="1">
          <mxGeometry relative="1" as="geometry">
            <Array as="points">
              <mxPoint x="277" y="417.5" />
              <mxPoint x="277" y="607.5" />
            </Array>
          </mxGeometry>
        </mxCell>
        <mxCell id="kF8S6U2vxt8Kwid--zTk-51" value="" style="edgeStyle=orthogonalEdgeStyle;rounded=0;orthogonalLoop=1;jettySize=auto;html=1;entryX=1;entryY=0.5;entryDx=0;entryDy=0;fontStyle=1;fontSize=13;" parent="kF8S6U2vxt8Kwid--zTk-199" source="kF8S6U2vxt8Kwid--zTk-38" target="kF8S6U2vxt8Kwid--zTk-42" edge="1">
          <mxGeometry relative="1" as="geometry">
            <mxPoint x="477" y="257.5" as="targetPoint" />
            <Array as="points">
              <mxPoint x="277" y="517.5" />
              <mxPoint x="277" y="607.5" />
            </Array>
          </mxGeometry>
        </mxCell>
        <mxCell id="kF8S6U2vxt8Kwid--zTk-44" value="Jah" style="text;html=1;strokeColor=none;fillColor=none;align=center;verticalAlign=middle;whiteSpace=wrap;rounded=0;fontStyle=1;fontSize=13;" parent="kF8S6U2vxt8Kwid--zTk-199" vertex="1">
          <mxGeometry x="207" y="277.5" width="60" height="30" as="geometry" />
        </mxCell>
        <mxCell id="kF8S6U2vxt8Kwid--zTk-45" value="Ei" style="text;html=1;strokeColor=none;fillColor=none;align=center;verticalAlign=middle;whiteSpace=wrap;rounded=0;fontStyle=1;fontSize=13;" parent="kF8S6U2vxt8Kwid--zTk-199" vertex="1">
          <mxGeometry x="107" y="347.5" width="60" height="30" as="geometry" />
        </mxCell>
        <mxCell id="kF8S6U2vxt8Kwid--zTk-48" value="Jah" style="text;html=1;strokeColor=none;fillColor=none;align=center;verticalAlign=middle;whiteSpace=wrap;rounded=0;fontStyle=1;fontSize=13;" parent="kF8S6U2vxt8Kwid--zTk-199" vertex="1">
          <mxGeometry x="207" y="377.5" width="60" height="30" as="geometry" />
        </mxCell>
        <mxCell id="kF8S6U2vxt8Kwid--zTk-49" value="Ei" style="text;html=1;strokeColor=none;fillColor=none;align=center;verticalAlign=middle;whiteSpace=wrap;rounded=0;fontStyle=1;fontSize=13;" parent="kF8S6U2vxt8Kwid--zTk-199" vertex="1">
          <mxGeometry x="107" y="457.5" width="60" height="30" as="geometry" />
        </mxCell>
        <mxCell id="kF8S6U2vxt8Kwid--zTk-52" value="Ei" style="text;html=1;strokeColor=none;fillColor=none;align=center;verticalAlign=middle;whiteSpace=wrap;rounded=0;fontStyle=1;fontSize=13;" parent="kF8S6U2vxt8Kwid--zTk-199" vertex="1">
          <mxGeometry x="87" y="537.5" width="60" height="30" as="geometry" />
        </mxCell>
        <mxCell id="kF8S6U2vxt8Kwid--zTk-57" value="Jah" style="text;html=1;strokeColor=none;fillColor=none;align=center;verticalAlign=middle;whiteSpace=wrap;rounded=0;fontStyle=1;fontSize=13;" parent="kF8S6U2vxt8Kwid--zTk-199" vertex="1">
          <mxGeometry x="207" y="477.5" width="60" height="30" as="geometry" />
        </mxCell>
        <mxCell id="kF8S6U2vxt8Kwid--zTk-58" value="Loe küsimused ja vastuse valikud&amp;nbsp;&lt;br style=&quot;font-size: 13px;&quot;&gt;Salvesta loetud väärtused&amp;nbsp;" style="whiteSpace=wrap;html=1;fontStyle=1;fontSize=13;" parent="kF8S6U2vxt8Kwid--zTk-199" vertex="1">
          <mxGeometry x="78" y="690" width="208" height="82.5" as="geometry" />
        </mxCell>
        <mxCell id="kF8S6U2vxt8Kwid--zTk-59" value="" style="edgeStyle=orthogonalEdgeStyle;rounded=0;orthogonalLoop=1;jettySize=auto;html=1;fontStyle=1;fontSize=13;" parent="kF8S6U2vxt8Kwid--zTk-199" source="kF8S6U2vxt8Kwid--zTk-42" target="kF8S6U2vxt8Kwid--zTk-58" edge="1">
          <mxGeometry relative="1" as="geometry" />
        </mxCell>
        <mxCell id="kF8S6U2vxt8Kwid--zTk-63" value="Kas on pilti mida lugeda" style="rhombus;whiteSpace=wrap;html=1;fontStyle=1;fontSize=13;" parent="kF8S6U2vxt8Kwid--zTk-199" vertex="1">
          <mxGeometry x="131" y="835" width="102" height="82.5" as="geometry" />
        </mxCell>
        <mxCell id="kF8S6U2vxt8Kwid--zTk-64" value="" style="edgeStyle=orthogonalEdgeStyle;rounded=0;orthogonalLoop=1;jettySize=auto;html=1;fontStyle=1;fontSize=13;" parent="kF8S6U2vxt8Kwid--zTk-199" source="kF8S6U2vxt8Kwid--zTk-58" target="kF8S6U2vxt8Kwid--zTk-63" edge="1">
          <mxGeometry relative="1" as="geometry" />
        </mxCell>
        <mxCell id="kF8S6U2vxt8Kwid--zTk-65" value="Salvesta pilt&amp;nbsp;" style="whiteSpace=wrap;html=1;fontStyle=1;fontSize=13;" parent="kF8S6U2vxt8Kwid--zTk-199" vertex="1">
          <mxGeometry x="122" y="962.5" width="120" height="60" as="geometry" />
        </mxCell>
        <mxCell id="kF8S6U2vxt8Kwid--zTk-66" value="" style="edgeStyle=orthogonalEdgeStyle;rounded=0;orthogonalLoop=1;jettySize=auto;html=1;fontStyle=1;fontSize=13;" parent="kF8S6U2vxt8Kwid--zTk-199" source="kF8S6U2vxt8Kwid--zTk-63" target="kF8S6U2vxt8Kwid--zTk-65" edge="1">
          <mxGeometry relative="1" as="geometry" />
        </mxCell>
        <mxCell id="kF8S6U2vxt8Kwid--zTk-67" value="Jah" style="text;html=1;strokeColor=none;fillColor=none;align=center;verticalAlign=middle;whiteSpace=wrap;rounded=0;fontStyle=1;fontSize=13;" parent="kF8S6U2vxt8Kwid--zTk-199" vertex="1">
          <mxGeometry x="107" y="917.5" width="60" height="30" as="geometry" />
        </mxCell>
        <mxCell id="kF8S6U2vxt8Kwid--zTk-70" value="Ei" style="text;html=1;strokeColor=none;fillColor=none;align=center;verticalAlign=middle;whiteSpace=wrap;rounded=0;fontStyle=1;fontSize=13;" parent="kF8S6U2vxt8Kwid--zTk-199" vertex="1">
          <mxGeometry x="237" y="837.5" width="60" height="30" as="geometry" />
        </mxCell>
        <mxCell id="kF8S6U2vxt8Kwid--zTk-200" value="Küsimuste leht" style="swimlane;swimlaneHead=0;swimlaneBody=0;fontStyle=1;connectable=0;fillColor=none;startSize=50;collapsible=0;recursiveResize=0;expand=0;labelBackgroundColor=none;labelBorderColor=default;fontSize=16;" parent="kF8S6U2vxt8Kwid--zTk-197" vertex="1">
          <mxGeometry x="708" width="412" height="1350" as="geometry">
            <mxRectangle width="412" height="1350" as="alternateBounds" />
          </mxGeometry>
        </mxCell>
        <mxCell id="kF8S6U2vxt8Kwid--zTk-95" value="Peida pilt" style="whiteSpace=wrap;html=1;fontStyle=1;fontSize=13;" parent="kF8S6U2vxt8Kwid--zTk-200" vertex="1">
          <mxGeometry x="232" y="717.5" width="120" height="60" as="geometry" />
        </mxCell>
        <mxCell id="kF8S6U2vxt8Kwid--zTk-68" value="Sulge vanuseleht&amp;nbsp;" style="whiteSpace=wrap;html=1;fontStyle=1;fontSize=13;" parent="kF8S6U2vxt8Kwid--zTk-200" vertex="1">
          <mxGeometry x="96" y="90" width="120" height="60" as="geometry" />
        </mxCell>
        <mxCell id="kF8S6U2vxt8Kwid--zTk-71" value="Ava küsimusteleht" style="whiteSpace=wrap;html=1;fontStyle=1;fontSize=13;" parent="kF8S6U2vxt8Kwid--zTk-200" vertex="1">
          <mxGeometry x="96" y="190" width="120" height="60" as="geometry" />
        </mxCell>
        <mxCell id="kF8S6U2vxt8Kwid--zTk-72" value="" style="edgeStyle=orthogonalEdgeStyle;rounded=0;orthogonalLoop=1;jettySize=auto;html=1;fontStyle=1;fontSize=13;" parent="kF8S6U2vxt8Kwid--zTk-200" source="kF8S6U2vxt8Kwid--zTk-68" target="kF8S6U2vxt8Kwid--zTk-71" edge="1">
          <mxGeometry relative="1" as="geometry" />
        </mxCell>
        <mxCell id="kF8S6U2vxt8Kwid--zTk-78" value="Too küsimus ja kuva küsimus" style="whiteSpace=wrap;html=1;fontStyle=1;fontSize=13;" parent="kF8S6U2vxt8Kwid--zTk-200" vertex="1">
          <mxGeometry x="96" y="280" width="120" height="60" as="geometry" />
        </mxCell>
        <mxCell id="kF8S6U2vxt8Kwid--zTk-79" value="" style="edgeStyle=orthogonalEdgeStyle;rounded=0;orthogonalLoop=1;jettySize=auto;html=1;fontStyle=1;fontSize=13;" parent="kF8S6U2vxt8Kwid--zTk-200" source="kF8S6U2vxt8Kwid--zTk-71" target="kF8S6U2vxt8Kwid--zTk-78" edge="1">
          <mxGeometry relative="1" as="geometry" />
        </mxCell>
        <mxCell id="kF8S6U2vxt8Kwid--zTk-80" value="Kuva vastusevariandi nupud&amp;nbsp;" style="whiteSpace=wrap;html=1;fontStyle=1;fontSize=13;" parent="kF8S6U2vxt8Kwid--zTk-200" vertex="1">
          <mxGeometry x="96" y="380" width="120" height="60" as="geometry" />
        </mxCell>
        <mxCell id="kF8S6U2vxt8Kwid--zTk-81" value="" style="edgeStyle=orthogonalEdgeStyle;rounded=0;orthogonalLoop=1;jettySize=auto;html=1;fontStyle=1;fontSize=13;" parent="kF8S6U2vxt8Kwid--zTk-200" source="kF8S6U2vxt8Kwid--zTk-78" target="kF8S6U2vxt8Kwid--zTk-80" edge="1">
          <mxGeometry relative="1" as="geometry" />
        </mxCell>
        <mxCell id="kF8S6U2vxt8Kwid--zTk-83" value="Random shuffle vastustele" style="whiteSpace=wrap;html=1;fontStyle=1;fontSize=13;" parent="kF8S6U2vxt8Kwid--zTk-200" vertex="1">
          <mxGeometry x="96" y="480" width="120" height="60" as="geometry" />
        </mxCell>
        <mxCell id="kF8S6U2vxt8Kwid--zTk-84" value="" style="edgeStyle=orthogonalEdgeStyle;rounded=0;orthogonalLoop=1;jettySize=auto;html=1;fontStyle=1;fontSize=13;" parent="kF8S6U2vxt8Kwid--zTk-200" source="kF8S6U2vxt8Kwid--zTk-80" target="kF8S6U2vxt8Kwid--zTk-83" edge="1">
          <mxGeometry relative="1" as="geometry" />
        </mxCell>
        <mxCell id="kF8S6U2vxt8Kwid--zTk-91" value="" style="edgeStyle=orthogonalEdgeStyle;rounded=0;orthogonalLoop=1;jettySize=auto;html=1;fontStyle=1;fontSize=13;" parent="kF8S6U2vxt8Kwid--zTk-200" source="kF8S6U2vxt8Kwid--zTk-86" target="kF8S6U2vxt8Kwid--zTk-90" edge="1">
          <mxGeometry relative="1" as="geometry" />
        </mxCell>
        <mxCell id="kF8S6U2vxt8Kwid--zTk-86" value="Kuva vastusevariandid nuppudele" style="whiteSpace=wrap;html=1;fontStyle=1;fontSize=13;" parent="kF8S6U2vxt8Kwid--zTk-200" vertex="1">
          <mxGeometry x="96" y="582.5" width="120" height="60" as="geometry" />
        </mxCell>
        <mxCell id="kF8S6U2vxt8Kwid--zTk-87" value="" style="edgeStyle=orthogonalEdgeStyle;rounded=0;orthogonalLoop=1;jettySize=auto;html=1;fontStyle=1;fontSize=13;" parent="kF8S6U2vxt8Kwid--zTk-200" source="kF8S6U2vxt8Kwid--zTk-83" target="kF8S6U2vxt8Kwid--zTk-86" edge="1">
          <mxGeometry relative="1" as="geometry" />
        </mxCell>
        <mxCell id="kF8S6U2vxt8Kwid--zTk-93" value="" style="edgeStyle=orthogonalEdgeStyle;rounded=0;orthogonalLoop=1;jettySize=auto;html=1;fontStyle=1;fontSize=13;" parent="kF8S6U2vxt8Kwid--zTk-200" source="kF8S6U2vxt8Kwid--zTk-90" target="kF8S6U2vxt8Kwid--zTk-92" edge="1">
          <mxGeometry relative="1" as="geometry" />
        </mxCell>
        <mxCell id="kF8S6U2vxt8Kwid--zTk-99" value="" style="edgeStyle=orthogonalEdgeStyle;rounded=0;orthogonalLoop=1;jettySize=auto;html=1;fontStyle=1;fontSize=13;" parent="kF8S6U2vxt8Kwid--zTk-200" source="kF8S6U2vxt8Kwid--zTk-92" target="kF8S6U2vxt8Kwid--zTk-98" edge="1">
          <mxGeometry relative="1" as="geometry" />
        </mxCell>
        <mxCell id="kF8S6U2vxt8Kwid--zTk-92" value="Määra resolutsioon pildile" style="whiteSpace=wrap;html=1;fontStyle=1;fontSize=13;" parent="kF8S6U2vxt8Kwid--zTk-200" vertex="1">
          <mxGeometry x="96" y="832.5" width="120" height="60" as="geometry" />
        </mxCell>
        <mxCell id="kF8S6U2vxt8Kwid--zTk-94" value="Jah" style="text;html=1;strokeColor=none;fillColor=none;align=center;verticalAlign=middle;whiteSpace=wrap;rounded=0;fontStyle=1;fontSize=13;" parent="kF8S6U2vxt8Kwid--zTk-200" vertex="1">
          <mxGeometry x="52" y="772.5" width="60" height="30" as="geometry" />
        </mxCell>
        <mxCell id="kF8S6U2vxt8Kwid--zTk-97" value="Ei" style="text;html=1;strokeColor=none;fillColor=none;align=center;verticalAlign=middle;whiteSpace=wrap;rounded=0;fontStyle=1;fontSize=13;" parent="kF8S6U2vxt8Kwid--zTk-200" vertex="1">
          <mxGeometry x="182" y="662.5" width="60" height="30" as="geometry" />
        </mxCell>
        <mxCell id="kF8S6U2vxt8Kwid--zTk-208" value="" style="edgeStyle=orthogonalEdgeStyle;rounded=0;orthogonalLoop=1;jettySize=auto;html=1;fontSize=13;fontStyle=1" parent="kF8S6U2vxt8Kwid--zTk-200" source="kF8S6U2vxt8Kwid--zTk-90" target="kF8S6U2vxt8Kwid--zTk-95" edge="1">
          <mxGeometry relative="1" as="geometry" />
        </mxCell>
        <mxCell id="kF8S6U2vxt8Kwid--zTk-90" value="Kas pilt on loetud = true" style="rhombus;whiteSpace=wrap;html=1;fontStyle=1;fontSize=13;" parent="kF8S6U2vxt8Kwid--zTk-200" vertex="1">
          <mxGeometry x="105.5" y="698.75" width="101" height="97.5" as="geometry" />
        </mxCell>
        <mxCell id="kF8S6U2vxt8Kwid--zTk-98" value="Kuva pilt" style="whiteSpace=wrap;html=1;fontStyle=1;fontSize=13;" parent="kF8S6U2vxt8Kwid--zTk-200" vertex="1">
          <mxGeometry x="96" y="947.5" width="120" height="60" as="geometry" />
        </mxCell>
        <mxCell id="kF8S6U2vxt8Kwid--zTk-201" value="Vastuste kontroll" style="swimlane;swimlaneHead=0;swimlaneBody=0;fontStyle=1;connectable=0;fillColor=none;startSize=50;collapsible=0;recursiveResize=0;expand=0;labelBorderColor=default;labelBackgroundColor=default;fontSize=16;" parent="kF8S6U2vxt8Kwid--zTk-197" vertex="1">
          <mxGeometry x="1120" width="420" height="1350" as="geometry">
            <mxRectangle width="420" height="1350" as="alternateBounds" />
          </mxGeometry>
        </mxCell>
        <mxCell id="kF8S6U2vxt8Kwid--zTk-100" value="Käivita kontrolli vastust funktsioon" style="whiteSpace=wrap;html=1;fontStyle=1;fontSize=13;" parent="kF8S6U2vxt8Kwid--zTk-201" vertex="1">
          <mxGeometry x="85" y="287.5" width="120" height="60" as="geometry" />
        </mxCell>
        <mxCell id="kF8S6U2vxt8Kwid--zTk-103" value="vastus õige" style="rhombus;whiteSpace=wrap;html=1;fontStyle=1;fontSize=13;" parent="kF8S6U2vxt8Kwid--zTk-201" vertex="1">
          <mxGeometry x="102.5" y="370" width="85" height="82.5" as="geometry" />
        </mxCell>
        <mxCell id="kF8S6U2vxt8Kwid--zTk-104" value="" style="edgeStyle=orthogonalEdgeStyle;rounded=0;orthogonalLoop=1;jettySize=auto;html=1;fontStyle=1;fontSize=13;" parent="kF8S6U2vxt8Kwid--zTk-201" source="kF8S6U2vxt8Kwid--zTk-100" target="kF8S6U2vxt8Kwid--zTk-103" edge="1">
          <mxGeometry relative="1" as="geometry" />
        </mxCell>
        <mxCell id="kF8S6U2vxt8Kwid--zTk-105" value="õigeid vastused +=1" style="whiteSpace=wrap;html=1;fontStyle=1;fontSize=13;" parent="kF8S6U2vxt8Kwid--zTk-201" vertex="1">
          <mxGeometry x="30" y="472.5" width="120" height="60" as="geometry" />
        </mxCell>
        <mxCell id="kF8S6U2vxt8Kwid--zTk-106" value="" style="edgeStyle=orthogonalEdgeStyle;rounded=0;orthogonalLoop=1;jettySize=auto;html=1;fontStyle=1;fontSize=13;exitX=0;exitY=0.5;exitDx=0;exitDy=0;" parent="kF8S6U2vxt8Kwid--zTk-201" source="kF8S6U2vxt8Kwid--zTk-103" edge="1">
          <mxGeometry relative="1" as="geometry">
            <mxPoint x="90" y="473" as="targetPoint" />
            <Array as="points">
              <mxPoint x="90" y="411" />
            </Array>
          </mxGeometry>
        </mxCell>
        <mxCell id="kF8S6U2vxt8Kwid--zTk-107" value="Jah" style="text;html=1;strokeColor=none;fillColor=none;align=center;verticalAlign=middle;whiteSpace=wrap;rounded=0;fontStyle=1;fontSize=13;" parent="kF8S6U2vxt8Kwid--zTk-201" vertex="1">
          <mxGeometry x="10" y="422.5" width="60" height="30" as="geometry" />
        </mxCell>
        <mxCell id="kF8S6U2vxt8Kwid--zTk-108" value="valed vastused +=1" style="whiteSpace=wrap;html=1;fontStyle=1;fontSize=13;" parent="kF8S6U2vxt8Kwid--zTk-201" vertex="1">
          <mxGeometry x="185" y="472.5" width="130" height="60" as="geometry" />
        </mxCell>
        <mxCell id="kF8S6U2vxt8Kwid--zTk-109" value="" style="edgeStyle=orthogonalEdgeStyle;rounded=0;orthogonalLoop=1;jettySize=auto;html=1;exitX=1;exitY=0.5;exitDx=0;exitDy=0;fontStyle=1;fontSize=13;" parent="kF8S6U2vxt8Kwid--zTk-201" source="kF8S6U2vxt8Kwid--zTk-103" target="kF8S6U2vxt8Kwid--zTk-108" edge="1">
          <mxGeometry relative="1" as="geometry" />
        </mxCell>
        <mxCell id="kF8S6U2vxt8Kwid--zTk-110" value="Ei" style="text;html=1;strokeColor=none;fillColor=none;align=center;verticalAlign=middle;whiteSpace=wrap;rounded=0;fontStyle=1;fontSize=13;" parent="kF8S6U2vxt8Kwid--zTk-201" vertex="1">
          <mxGeometry x="175" y="377.5" width="60" height="20" as="geometry" />
        </mxCell>
        <mxCell id="kF8S6U2vxt8Kwid--zTk-111" value="Sulge vastuste leht" style="whiteSpace=wrap;html=1;fontStyle=1;fontSize=13;" parent="kF8S6U2vxt8Kwid--zTk-201" vertex="1">
          <mxGeometry x="85" y="612.5" width="120" height="60" as="geometry" />
        </mxCell>
        <mxCell id="kF8S6U2vxt8Kwid--zTk-112" value="" style="edgeStyle=orthogonalEdgeStyle;rounded=0;orthogonalLoop=1;jettySize=auto;html=1;fontStyle=1;fontSize=13;" parent="kF8S6U2vxt8Kwid--zTk-201" target="kF8S6U2vxt8Kwid--zTk-111" edge="1">
          <mxGeometry relative="1" as="geometry">
            <mxPoint x="105" y="532.5" as="sourcePoint" />
          </mxGeometry>
        </mxCell>
        <mxCell id="kF8S6U2vxt8Kwid--zTk-113" value="" style="edgeStyle=orthogonalEdgeStyle;rounded=0;orthogonalLoop=1;jettySize=auto;html=1;fontStyle=1;fontSize=13;" parent="kF8S6U2vxt8Kwid--zTk-201" source="kF8S6U2vxt8Kwid--zTk-108" target="kF8S6U2vxt8Kwid--zTk-111" edge="1">
          <mxGeometry relative="1" as="geometry" />
        </mxCell>
        <mxCell id="kF8S6U2vxt8Kwid--zTk-114" value="ava lõpuleht" style="whiteSpace=wrap;html=1;fontStyle=1;fontSize=13;" parent="kF8S6U2vxt8Kwid--zTk-201" vertex="1">
          <mxGeometry x="85" y="702.5" width="120" height="60" as="geometry" />
        </mxCell>
        <mxCell id="kF8S6U2vxt8Kwid--zTk-115" value="" style="edgeStyle=orthogonalEdgeStyle;rounded=0;orthogonalLoop=1;jettySize=auto;html=1;fontStyle=1;fontSize=13;" parent="kF8S6U2vxt8Kwid--zTk-201" source="kF8S6U2vxt8Kwid--zTk-111" target="kF8S6U2vxt8Kwid--zTk-114" edge="1">
          <mxGeometry relative="1" as="geometry" />
        </mxCell>
        <mxCell id="kF8S6U2vxt8Kwid--zTk-120" value="vastus õige" style="rhombus;whiteSpace=wrap;html=1;fontStyle=1;fontSize=13;" parent="kF8S6U2vxt8Kwid--zTk-201" vertex="1">
          <mxGeometry x="105" y="797.5" width="80" height="75" as="geometry" />
        </mxCell>
        <mxCell id="kF8S6U2vxt8Kwid--zTk-123" value="" style="edgeStyle=orthogonalEdgeStyle;rounded=0;orthogonalLoop=1;jettySize=auto;html=1;entryX=0.5;entryY=0;entryDx=0;entryDy=0;fontStyle=1;fontSize=13;" parent="kF8S6U2vxt8Kwid--zTk-201" source="kF8S6U2vxt8Kwid--zTk-114" target="kF8S6U2vxt8Kwid--zTk-120" edge="1">
          <mxGeometry relative="1" as="geometry">
            <Array as="points" />
          </mxGeometry>
        </mxCell>
        <mxCell id="kF8S6U2vxt8Kwid--zTk-128" value="Kuva tekst: õige vastus" style="whiteSpace=wrap;html=1;fontStyle=1;fontSize=13;" parent="kF8S6U2vxt8Kwid--zTk-201" vertex="1">
          <mxGeometry x="85" y="897.5" width="120" height="60" as="geometry" />
        </mxCell>
        <mxCell id="kF8S6U2vxt8Kwid--zTk-129" value="" style="edgeStyle=orthogonalEdgeStyle;rounded=0;orthogonalLoop=1;jettySize=auto;html=1;fontStyle=1;fontSize=13;" parent="kF8S6U2vxt8Kwid--zTk-201" source="kF8S6U2vxt8Kwid--zTk-120" target="kF8S6U2vxt8Kwid--zTk-128" edge="1">
          <mxGeometry relative="1" as="geometry" />
        </mxCell>
        <mxCell id="kF8S6U2vxt8Kwid--zTk-132" value="Kuva tekst: vale vastus" style="whiteSpace=wrap;html=1;fontStyle=1;fontSize=13;" parent="kF8S6U2vxt8Kwid--zTk-201" vertex="1">
          <mxGeometry x="225" y="805" width="120" height="60" as="geometry" />
        </mxCell>
        <mxCell id="kF8S6U2vxt8Kwid--zTk-133" value="" style="edgeStyle=orthogonalEdgeStyle;rounded=0;orthogonalLoop=1;jettySize=auto;html=1;fontStyle=1;fontSize=13;" parent="kF8S6U2vxt8Kwid--zTk-201" source="kF8S6U2vxt8Kwid--zTk-120" target="kF8S6U2vxt8Kwid--zTk-132" edge="1">
          <mxGeometry relative="1" as="geometry" />
        </mxCell>
        <mxCell id="kF8S6U2vxt8Kwid--zTk-134" value="Jah" style="text;html=1;strokeColor=none;fillColor=none;align=center;verticalAlign=middle;whiteSpace=wrap;rounded=0;fontStyle=1;fontSize=13;" parent="kF8S6U2vxt8Kwid--zTk-201" vertex="1">
          <mxGeometry x="40" y="857.5" width="60" height="30" as="geometry" />
        </mxCell>
        <mxCell id="kF8S6U2vxt8Kwid--zTk-137" value="Ei" style="text;html=1;strokeColor=none;fillColor=none;align=center;verticalAlign=middle;whiteSpace=wrap;rounded=0;fontStyle=1;fontSize=13;" parent="kF8S6U2vxt8Kwid--zTk-201" vertex="1">
          <mxGeometry x="155" y="782.5" width="60" height="20" as="geometry" />
        </mxCell>
        <mxCell id="kF8S6U2vxt8Kwid--zTk-173" value="Vali vastus 1-4" style="rhombus;whiteSpace=wrap;html=1;fontStyle=1;fontSize=13;" parent="kF8S6U2vxt8Kwid--zTk-201" vertex="1">
          <mxGeometry x="95" y="80" width="100" height="87.5" as="geometry" />
        </mxCell>
        <mxCell id="kF8S6U2vxt8Kwid--zTk-178" value="Jah" style="text;html=1;strokeColor=none;fillColor=none;align=center;verticalAlign=middle;whiteSpace=wrap;rounded=0;fontStyle=1;fontSize=13;" parent="kF8S6U2vxt8Kwid--zTk-201" vertex="1">
          <mxGeometry x="75" y="157.5" width="60" height="30" as="geometry" />
        </mxCell>
        <mxCell id="kF8S6U2vxt8Kwid--zTk-179" value="Ei" style="text;html=1;strokeColor=none;fillColor=none;align=center;verticalAlign=middle;whiteSpace=wrap;rounded=0;fontStyle=1;fontSize=13;" parent="kF8S6U2vxt8Kwid--zTk-201" vertex="1">
          <mxGeometry x="215" y="97.5" width="60" height="30" as="geometry" />
        </mxCell>
        <mxCell id="kF8S6U2vxt8Kwid--zTk-182" value="" style="edgeStyle=orthogonalEdgeStyle;rounded=0;orthogonalLoop=1;jettySize=auto;html=1;entryX=0.5;entryY=0;entryDx=0;entryDy=0;fontStyle=1;fontSize=13;" parent="kF8S6U2vxt8Kwid--zTk-201" source="kF8S6U2vxt8Kwid--zTk-181" target="kF8S6U2vxt8Kwid--zTk-100" edge="1">
          <mxGeometry relative="1" as="geometry" />
        </mxCell>
        <mxCell id="kF8S6U2vxt8Kwid--zTk-181" value="Salvesta valitud vastus" style="rounded=0;whiteSpace=wrap;html=1;fontStyle=1;fontSize=13;" parent="kF8S6U2vxt8Kwid--zTk-201" vertex="1">
          <mxGeometry x="85" y="205" width="120" height="60" as="geometry" />
        </mxCell>
        <mxCell id="kF8S6U2vxt8Kwid--zTk-176" value="" style="edgeStyle=orthogonalEdgeStyle;rounded=0;orthogonalLoop=1;jettySize=auto;html=1;entryX=0.5;entryY=0;entryDx=0;entryDy=0;fontStyle=1;fontSize=13;" parent="kF8S6U2vxt8Kwid--zTk-201" source="kF8S6U2vxt8Kwid--zTk-173" target="kF8S6U2vxt8Kwid--zTk-181" edge="1">
          <mxGeometry relative="1" as="geometry">
            <mxPoint x="155" y="197.5" as="targetPoint" />
          </mxGeometry>
        </mxCell>
        <mxCell id="kF8S6U2vxt8Kwid--zTk-202" value="Skoor ja väljastus" style="swimlane;swimlaneHead=0;swimlaneBody=0;fontStyle=1;connectable=0;fillColor=none;startSize=50;collapsible=0;recursiveResize=0;expand=0;labelBorderColor=default;labelBackgroundColor=default;fontSize=16;" parent="kF8S6U2vxt8Kwid--zTk-197" vertex="1">
          <mxGeometry x="1540" width="460" height="1350" as="geometry">
            <mxRectangle width="460" height="1350" as="alternateBounds" />
          </mxGeometry>
        </mxCell>
        <mxCell id="kF8S6U2vxt8Kwid--zTk-165" value="" style="edgeStyle=orthogonalEdgeStyle;rounded=0;orthogonalLoop=1;jettySize=auto;html=1;fontStyle=1;fontSize=13;entryX=0;entryY=0.5;entryDx=0;entryDy=0;" parent="kF8S6U2vxt8Kwid--zTk-202" source="kF8S6U2vxt8Kwid--zTk-138" edge="1" target="kF8S6U2vxt8Kwid--zTk-166">
          <mxGeometry relative="1" as="geometry">
            <mxPoint x="270" y="255" as="targetPoint" />
          </mxGeometry>
        </mxCell>
        <mxCell id="IJdbN-bh61W4Vu56taIt-60" value="" style="edgeStyle=orthogonalEdgeStyle;rounded=0;orthogonalLoop=1;jettySize=auto;html=1;fontSize=13;entryX=0.5;entryY=0;entryDx=0;entryDy=0;" edge="1" parent="kF8S6U2vxt8Kwid--zTk-202" source="kF8S6U2vxt8Kwid--zTk-138" target="IJdbN-bh61W4Vu56taIt-61">
          <mxGeometry relative="1" as="geometry">
            <mxPoint x="170" y="270" as="targetPoint" />
          </mxGeometry>
        </mxCell>
        <mxCell id="kF8S6U2vxt8Kwid--zTk-138" value="Kas skoor on = 5" style="rhombus;whiteSpace=wrap;html=1;fontStyle=1;fontSize=13;" parent="kF8S6U2vxt8Kwid--zTk-202" vertex="1">
          <mxGeometry x="96.25" y="140" width="130" height="100" as="geometry" />
        </mxCell>
        <mxCell id="IJdbN-bh61W4Vu56taIt-62" value="" style="edgeStyle=orthogonalEdgeStyle;rounded=0;orthogonalLoop=1;jettySize=auto;html=1;fontSize=13;" edge="1" parent="kF8S6U2vxt8Kwid--zTk-202" source="kF8S6U2vxt8Kwid--zTk-141">
          <mxGeometry relative="1" as="geometry">
            <mxPoint x="164" y="1040" as="targetPoint" />
          </mxGeometry>
        </mxCell>
        <mxCell id="kF8S6U2vxt8Kwid--zTk-141" value="Reset funktsioon:&lt;br style=&quot;font-size: 13px;&quot;&gt;kõik muutujad = 0" style="whiteSpace=wrap;html=1;fontStyle=1;fontSize=13;" parent="kF8S6U2vxt8Kwid--zTk-202" vertex="1">
          <mxGeometry x="83.75" y="980" width="159.63" height="30" as="geometry" />
        </mxCell>
        <mxCell id="kF8S6U2vxt8Kwid--zTk-147" value="" style="edgeStyle=orthogonalEdgeStyle;rounded=0;orthogonalLoop=1;jettySize=auto;html=1;fontStyle=1;fontSize=13;" parent="kF8S6U2vxt8Kwid--zTk-202" source="kF8S6U2vxt8Kwid--zTk-143" edge="1">
          <mxGeometry relative="1" as="geometry">
            <mxPoint x="161" y="140" as="targetPoint" />
          </mxGeometry>
        </mxCell>
        <mxCell id="kF8S6U2vxt8Kwid--zTk-146" value="Kas tahad uuesti mängida?" style="rhombus;whiteSpace=wrap;html=1;fontStyle=1;fontSize=13;" parent="kF8S6U2vxt8Kwid--zTk-202" vertex="1">
          <mxGeometry x="97.87" y="1040" width="130" height="121.25" as="geometry" />
        </mxCell>
        <mxCell id="kF8S6U2vxt8Kwid--zTk-148" value="Jah" style="text;html=1;strokeColor=none;fillColor=none;align=center;verticalAlign=middle;whiteSpace=wrap;rounded=0;fontStyle=1;fontSize=13;" parent="kF8S6U2vxt8Kwid--zTk-202" vertex="1">
          <mxGeometry x="83.75" y="250" width="60" height="30" as="geometry" />
        </mxCell>
        <mxCell id="kF8S6U2vxt8Kwid--zTk-152" value="Ei" style="text;html=1;strokeColor=none;fillColor=none;align=center;verticalAlign=middle;whiteSpace=wrap;rounded=0;fontStyle=1;fontSize=13;" parent="kF8S6U2vxt8Kwid--zTk-202" vertex="1">
          <mxGeometry x="220" y="205" width="60" height="30" as="geometry" />
        </mxCell>
        <mxCell id="kF8S6U2vxt8Kwid--zTk-156" value="Ei" style="text;html=1;strokeColor=none;fillColor=none;align=center;verticalAlign=middle;whiteSpace=wrap;rounded=0;fontStyle=1;fontSize=13;" parent="kF8S6U2vxt8Kwid--zTk-202" vertex="1">
          <mxGeometry x="220" y="1060" width="60" height="30" as="geometry" />
        </mxCell>
        <mxCell id="kF8S6U2vxt8Kwid--zTk-157" value="Jah" style="text;html=1;strokeColor=none;fillColor=none;align=center;verticalAlign=middle;whiteSpace=wrap;rounded=0;fontStyle=1;fontSize=13;" parent="kF8S6U2vxt8Kwid--zTk-202" vertex="1">
          <mxGeometry x="188.75" y="1125.62" width="60" height="30" as="geometry" />
        </mxCell>
        <mxCell id="kF8S6U2vxt8Kwid--zTk-158" value="Käivita start funktsioon, ava avaleht ja peida viimane leht" style="whiteSpace=wrap;html=1;fontStyle=1;fontSize=13;" parent="kF8S6U2vxt8Kwid--zTk-202" vertex="1">
          <mxGeometry x="80.25" y="1190" width="165.25" height="87.5" as="geometry" />
        </mxCell>
        <mxCell id="kF8S6U2vxt8Kwid--zTk-159" value="" style="edgeStyle=orthogonalEdgeStyle;rounded=0;orthogonalLoop=1;jettySize=auto;html=1;fontStyle=1;fontSize=13;" parent="kF8S6U2vxt8Kwid--zTk-202" source="kF8S6U2vxt8Kwid--zTk-146" target="kF8S6U2vxt8Kwid--zTk-158" edge="1">
          <mxGeometry relative="1" as="geometry" />
        </mxCell>
        <mxCell id="kF8S6U2vxt8Kwid--zTk-166" value="Järgmine küsimus palun ja skoor += 1" style="rhombus;whiteSpace=wrap;html=1;fontStyle=1;fontSize=13;" parent="kF8S6U2vxt8Kwid--zTk-202" vertex="1">
          <mxGeometry x="310" y="182.5" width="138" height="145" as="geometry" />
        </mxCell>
        <mxCell id="kF8S6U2vxt8Kwid--zTk-169" value="Jah" style="text;html=1;strokeColor=none;fillColor=none;align=center;verticalAlign=middle;whiteSpace=wrap;rounded=0;fontStyle=1;fontSize=13;" parent="kF8S6U2vxt8Kwid--zTk-202" vertex="1">
          <mxGeometry x="370" y="330" width="60" height="30" as="geometry" />
        </mxCell>
        <mxCell id="kF8S6U2vxt8Kwid--zTk-143" value="Kuva skoori väärtused ja mängude arv" style="rounded=0;whiteSpace=wrap;html=1;fontStyle=1;fontSize=13;" parent="kF8S6U2vxt8Kwid--zTk-202" vertex="1">
          <mxGeometry x="101.63" y="60" width="120" height="60" as="geometry" />
        </mxCell>
        <mxCell id="IJdbN-bh61W4Vu56taIt-17" value="Käivita steppermootor" style="whiteSpace=wrap;html=1;fontSize=13;fontStyle=1;" vertex="1" parent="kF8S6U2vxt8Kwid--zTk-202">
          <mxGeometry x="102.5" y="540" width="117.5" height="30" as="geometry" />
        </mxCell>
        <mxCell id="IJdbN-bh61W4Vu56taIt-19" value="Üks tasku edasi&amp;nbsp;" style="whiteSpace=wrap;html=1;fontSize=13;fontStyle=1;" vertex="1" parent="kF8S6U2vxt8Kwid--zTk-202">
          <mxGeometry x="102.5" y="600" width="117.5" height="30" as="geometry" />
        </mxCell>
        <mxCell id="IJdbN-bh61W4Vu56taIt-20" value="" style="edgeStyle=orthogonalEdgeStyle;rounded=0;orthogonalLoop=1;jettySize=auto;html=1;fontSize=13;" edge="1" parent="kF8S6U2vxt8Kwid--zTk-202" source="IJdbN-bh61W4Vu56taIt-17" target="IJdbN-bh61W4Vu56taIt-19">
          <mxGeometry relative="1" as="geometry" />
        </mxCell>
        <mxCell id="IJdbN-bh61W4Vu56taIt-21" value="Delay 2 s" style="whiteSpace=wrap;html=1;fontSize=13;fontStyle=1;" vertex="1" parent="kF8S6U2vxt8Kwid--zTk-202">
          <mxGeometry x="102.13" y="660" width="119" height="30" as="geometry" />
        </mxCell>
        <mxCell id="IJdbN-bh61W4Vu56taIt-22" value="" style="edgeStyle=orthogonalEdgeStyle;rounded=0;orthogonalLoop=1;jettySize=auto;html=1;fontSize=13;" edge="1" parent="kF8S6U2vxt8Kwid--zTk-202" source="IJdbN-bh61W4Vu56taIt-19" target="IJdbN-bh61W4Vu56taIt-21">
          <mxGeometry relative="1" as="geometry" />
        </mxCell>
        <mxCell id="IJdbN-bh61W4Vu56taIt-56" value="" style="edgeStyle=orthogonalEdgeStyle;rounded=0;orthogonalLoop=1;jettySize=auto;html=1;fontSize=13;entryX=0.5;entryY=0;entryDx=0;entryDy=0;" edge="1" parent="kF8S6U2vxt8Kwid--zTk-202" source="IJdbN-bh61W4Vu56taIt-23" target="IJdbN-bh61W4Vu56taIt-25">
          <mxGeometry relative="1" as="geometry" />
        </mxCell>
        <mxCell id="IJdbN-bh61W4Vu56taIt-23" value="Lineaartäitur tööle" style="whiteSpace=wrap;html=1;fontSize=13;fontStyle=1;" vertex="1" parent="kF8S6U2vxt8Kwid--zTk-202">
          <mxGeometry x="101.19" y="730" width="120.88" height="40" as="geometry" />
        </mxCell>
        <mxCell id="IJdbN-bh61W4Vu56taIt-24" value="" style="edgeStyle=orthogonalEdgeStyle;rounded=0;orthogonalLoop=1;jettySize=auto;html=1;fontSize=13;" edge="1" parent="kF8S6U2vxt8Kwid--zTk-202" source="IJdbN-bh61W4Vu56taIt-21" target="IJdbN-bh61W4Vu56taIt-23">
          <mxGeometry relative="1" as="geometry" />
        </mxCell>
        <mxCell id="IJdbN-bh61W4Vu56taIt-40" value="" style="edgeStyle=orthogonalEdgeStyle;rounded=0;orthogonalLoop=1;jettySize=auto;html=1;fontSize=13;entryX=0.5;entryY=0;entryDx=0;entryDy=0;" edge="1" parent="kF8S6U2vxt8Kwid--zTk-202" source="IJdbN-bh61W4Vu56taIt-37" target="IJdbN-bh61W4Vu56taIt-17">
          <mxGeometry relative="1" as="geometry">
            <mxPoint x="288.75000000000045" y="480.0000000000002" as="targetPoint" />
          </mxGeometry>
        </mxCell>
        <mxCell id="IJdbN-bh61W4Vu56taIt-37" value="Kas on ohulüliti suletud?" style="rhombus;whiteSpace=wrap;html=1;fontSize=13;fontStyle=1" vertex="1" parent="kF8S6U2vxt8Kwid--zTk-202">
          <mxGeometry x="113.75" y="430" width="95" height="80" as="geometry" />
        </mxCell>
        <mxCell id="IJdbN-bh61W4Vu56taIt-41" value="&lt;b&gt;Jah&lt;/b&gt;" style="text;html=1;strokeColor=none;fillColor=none;align=center;verticalAlign=middle;whiteSpace=wrap;rounded=0;fontSize=13;" vertex="1" parent="kF8S6U2vxt8Kwid--zTk-202">
          <mxGeometry x="83.75" y="500" width="60" height="30" as="geometry" />
        </mxCell>
        <mxCell id="IJdbN-bh61W4Vu56taIt-59" value="" style="edgeStyle=orthogonalEdgeStyle;rounded=0;orthogonalLoop=1;jettySize=auto;html=1;fontSize=13;entryX=0.5;entryY=0;entryDx=0;entryDy=0;" edge="1" parent="kF8S6U2vxt8Kwid--zTk-202" source="IJdbN-bh61W4Vu56taIt-42" target="IJdbN-bh61W4Vu56taIt-37">
          <mxGeometry relative="1" as="geometry">
            <mxPoint x="292.5" y="554.9999999999998" as="targetPoint" />
            <Array as="points">
              <mxPoint x="292" y="540" />
              <mxPoint x="360" y="540" />
              <mxPoint x="360" y="410" />
              <mxPoint x="161" y="410" />
            </Array>
          </mxGeometry>
        </mxCell>
        <mxCell id="IJdbN-bh61W4Vu56taIt-42" value="Lülita ajam välja" style="whiteSpace=wrap;html=1;fontSize=13;fontStyle=1;" vertex="1" parent="kF8S6U2vxt8Kwid--zTk-202">
          <mxGeometry x="230" y="452.5" width="125" height="35" as="geometry" />
        </mxCell>
        <mxCell id="IJdbN-bh61W4Vu56taIt-43" value="" style="edgeStyle=orthogonalEdgeStyle;rounded=0;orthogonalLoop=1;jettySize=auto;html=1;fontSize=13;" edge="1" parent="kF8S6U2vxt8Kwid--zTk-202" source="IJdbN-bh61W4Vu56taIt-37" target="IJdbN-bh61W4Vu56taIt-42">
          <mxGeometry relative="1" as="geometry" />
        </mxCell>
        <mxCell id="IJdbN-bh61W4Vu56taIt-46" value="&lt;b&gt;Ei&lt;/b&gt;" style="text;html=1;strokeColor=none;fillColor=none;align=center;verticalAlign=middle;whiteSpace=wrap;rounded=0;fontSize=13;" vertex="1" parent="kF8S6U2vxt8Kwid--zTk-202">
          <mxGeometry x="188.75" y="440" width="60" height="30" as="geometry" />
        </mxCell>
        <mxCell id="IJdbN-bh61W4Vu56taIt-25" value="Delays 5 s" style="whiteSpace=wrap;html=1;fontSize=13;fontStyle=1;" vertex="1" parent="kF8S6U2vxt8Kwid--zTk-202">
          <mxGeometry x="104.5" y="800" width="116.75" height="30" as="geometry" />
        </mxCell>
        <mxCell id="IJdbN-bh61W4Vu56taIt-27" value="Väljasta toode" style="whiteSpace=wrap;html=1;fontSize=13;fontStyle=1;" vertex="1" parent="kF8S6U2vxt8Kwid--zTk-202">
          <mxGeometry x="102.5" y="850" width="120.75" height="40" as="geometry" />
        </mxCell>
        <mxCell id="IJdbN-bh61W4Vu56taIt-28" value="" style="edgeStyle=orthogonalEdgeStyle;rounded=0;orthogonalLoop=1;jettySize=auto;html=1;fontSize=13;" edge="1" parent="kF8S6U2vxt8Kwid--zTk-202" source="IJdbN-bh61W4Vu56taIt-25" target="IJdbN-bh61W4Vu56taIt-27">
          <mxGeometry relative="1" as="geometry" />
        </mxCell>
        <mxCell id="IJdbN-bh61W4Vu56taIt-63" value="" style="edgeStyle=orthogonalEdgeStyle;rounded=0;orthogonalLoop=1;jettySize=auto;html=1;fontSize=13;entryX=0.5;entryY=0;entryDx=0;entryDy=0;" edge="1" parent="kF8S6U2vxt8Kwid--zTk-202" source="IJdbN-bh61W4Vu56taIt-29" target="kF8S6U2vxt8Kwid--zTk-141">
          <mxGeometry relative="1" as="geometry" />
        </mxCell>
        <mxCell id="IJdbN-bh61W4Vu56taIt-29" value="Mootorid kinni" style="whiteSpace=wrap;html=1;fontSize=13;fontStyle=1;" vertex="1" parent="kF8S6U2vxt8Kwid--zTk-202">
          <mxGeometry x="103.56" y="910" width="120" height="40" as="geometry" />
        </mxCell>
        <mxCell id="IJdbN-bh61W4Vu56taIt-30" value="" style="edgeStyle=orthogonalEdgeStyle;rounded=0;orthogonalLoop=1;jettySize=auto;html=1;fontSize=13;" edge="1" parent="kF8S6U2vxt8Kwid--zTk-202" source="IJdbN-bh61W4Vu56taIt-27" target="IJdbN-bh61W4Vu56taIt-29">
          <mxGeometry relative="1" as="geometry" />
        </mxCell>
        <mxCell id="IJdbN-bh61W4Vu56taIt-64" value="" style="edgeStyle=orthogonalEdgeStyle;rounded=0;orthogonalLoop=1;jettySize=auto;html=1;fontSize=13;entryX=0.5;entryY=0;entryDx=0;entryDy=0;" edge="1" parent="kF8S6U2vxt8Kwid--zTk-202" source="IJdbN-bh61W4Vu56taIt-61" target="IJdbN-bh61W4Vu56taIt-37">
          <mxGeometry relative="1" as="geometry" />
        </mxCell>
        <mxCell id="IJdbN-bh61W4Vu56taIt-61" value="Kas skoor õiged &amp;gt; skoor valed" style="rhombus;whiteSpace=wrap;html=1;fontSize=13;fontStyle=1" vertex="1" parent="kF8S6U2vxt8Kwid--zTk-202">
          <mxGeometry x="94.78999999999999" y="270" width="132.93" height="122.5" as="geometry" />
        </mxCell>
        <mxCell id="IJdbN-bh61W4Vu56taIt-65" value="&lt;b&gt;Jah&lt;/b&gt;" style="text;html=1;strokeColor=none;fillColor=none;align=center;verticalAlign=middle;whiteSpace=wrap;rounded=0;fontSize=13;" vertex="1" parent="kF8S6U2vxt8Kwid--zTk-202">
          <mxGeometry x="83.75" y="392.5" width="60" height="30" as="geometry" />
        </mxCell>
        <mxCell id="IJdbN-bh61W4Vu56taIt-67" value="Ei" style="text;html=1;strokeColor=none;fillColor=none;align=center;verticalAlign=middle;whiteSpace=wrap;rounded=0;fontSize=13;fontStyle=1" vertex="1" parent="kF8S6U2vxt8Kwid--zTk-202">
          <mxGeometry x="227.8699999999999" y="297.5" width="60" height="30" as="geometry" />
        </mxCell>
        <mxCell id="kF8S6U2vxt8Kwid--zTk-203" value="Lõpp" style="swimlane;swimlaneHead=0;swimlaneBody=0;fontStyle=1;connectable=0;fillColor=none;startSize=50;collapsible=0;recursiveResize=0;expand=0;labelBorderColor=default;labelBackgroundColor=default;fontSize=16;" parent="kF8S6U2vxt8Kwid--zTk-197" vertex="1">
          <mxGeometry x="2000" width="260" height="1350" as="geometry">
            <mxRectangle width="260" height="1350" as="alternateBounds" />
          </mxGeometry>
        </mxCell>
        <mxCell id="kF8S6U2vxt8Kwid--zTk-10" value="End" style="ellipse;whiteSpace=wrap;html=1;fontStyle=1;fontSize=14;" parent="kF8S6U2vxt8Kwid--zTk-203" vertex="1">
          <mxGeometry x="50" y="1040" width="100" height="50" as="geometry" />
        </mxCell>
        <mxCell id="kF8S6U2vxt8Kwid--zTk-172" value="Ei" style="text;html=1;strokeColor=none;fillColor=none;align=center;verticalAlign=middle;whiteSpace=wrap;rounded=0;fontStyle=1;fontSize=13;" parent="kF8S6U2vxt8Kwid--zTk-203" vertex="1">
          <mxGeometry y="220" width="60" height="30" as="geometry" />
        </mxCell>
        <mxCell id="kF8S6U2vxt8Kwid--zTk-163" value="" style="edgeStyle=orthogonalEdgeStyle;rounded=0;orthogonalLoop=1;jettySize=auto;html=1;entryX=0.5;entryY=0;entryDx=0;entryDy=0;" parent="kF8S6U2vxt8Kwid--zTk-197" source="kF8S6U2vxt8Kwid--zTk-158" target="kF8S6U2vxt8Kwid--zTk-17" edge="1">
          <mxGeometry relative="1" as="geometry">
            <mxPoint x="1295" y="737.5049999999999" as="targetPoint" />
            <Array as="points">
              <mxPoint x="1705" y="1330" />
              <mxPoint x="80" y="1330" />
              <mxPoint x="80" y="770" />
              <mxPoint x="168" y="770" />
            </Array>
          </mxGeometry>
        </mxCell>
        <mxCell id="kF8S6U2vxt8Kwid--zTk-168" value="" style="edgeStyle=orthogonalEdgeStyle;rounded=0;orthogonalLoop=1;jettySize=auto;html=1;entryX=0.5;entryY=0;entryDx=0;entryDy=0;exitX=0.5;exitY=1;exitDx=0;exitDy=0;" parent="kF8S6U2vxt8Kwid--zTk-197" source="kF8S6U2vxt8Kwid--zTk-166" target="kF8S6U2vxt8Kwid--zTk-58" edge="1">
          <mxGeometry relative="1" as="geometry">
            <mxPoint x="1460" y="412.5" as="targetPoint" />
            <Array as="points">
              <mxPoint x="1920" y="1300" />
              <mxPoint x="400" y="1300" />
              <mxPoint x="400" y="663" />
              <mxPoint x="522" y="663" />
            </Array>
          </mxGeometry>
        </mxCell>
        <mxCell id="kF8S6U2vxt8Kwid--zTk-177" value="" style="edgeStyle=orthogonalEdgeStyle;rounded=0;orthogonalLoop=1;jettySize=auto;html=1;" parent="kF8S6U2vxt8Kwid--zTk-197" source="kF8S6U2vxt8Kwid--zTk-95" target="kF8S6U2vxt8Kwid--zTk-173" edge="1">
          <mxGeometry relative="1" as="geometry">
            <Array as="points">
              <mxPoint x="1000" y="823" />
              <mxPoint x="1080" y="823" />
              <mxPoint x="1080" y="124" />
            </Array>
          </mxGeometry>
        </mxCell>
        <mxCell id="kF8S6U2vxt8Kwid--zTk-101" value="" style="edgeStyle=orthogonalEdgeStyle;rounded=0;orthogonalLoop=1;jettySize=auto;html=1;exitX=0.5;exitY=1;exitDx=0;exitDy=0;entryX=0;entryY=0.5;entryDx=0;entryDy=0;" parent="kF8S6U2vxt8Kwid--zTk-197" source="kF8S6U2vxt8Kwid--zTk-98" target="kF8S6U2vxt8Kwid--zTk-173" edge="1">
          <mxGeometry relative="1" as="geometry">
            <Array as="points">
              <mxPoint x="864" y="1043" />
              <mxPoint x="1080" y="1043" />
              <mxPoint x="1080" y="124" />
            </Array>
          </mxGeometry>
        </mxCell>
        <mxCell id="kF8S6U2vxt8Kwid--zTk-69" value="" style="edgeStyle=orthogonalEdgeStyle;rounded=0;orthogonalLoop=1;jettySize=auto;html=1;exitX=1;exitY=0.5;exitDx=0;exitDy=0;" parent="kF8S6U2vxt8Kwid--zTk-197" source="kF8S6U2vxt8Kwid--zTk-63" target="kF8S6U2vxt8Kwid--zTk-68" edge="1">
          <mxGeometry relative="1" as="geometry">
            <Array as="points">
              <mxPoint x="670" y="878" />
              <mxPoint x="670" y="120" />
            </Array>
          </mxGeometry>
        </mxCell>
        <mxCell id="kF8S6U2vxt8Kwid--zTk-76" value="" style="edgeStyle=orthogonalEdgeStyle;rounded=0;orthogonalLoop=1;jettySize=auto;html=1;entryX=0;entryY=0.5;entryDx=0;entryDy=0;exitX=0.5;exitY=1;exitDx=0;exitDy=0;" parent="kF8S6U2vxt8Kwid--zTk-197" source="kF8S6U2vxt8Kwid--zTk-65" target="kF8S6U2vxt8Kwid--zTk-68" edge="1">
          <mxGeometry relative="1" as="geometry">
            <mxPoint x="710" y="372.5" as="targetPoint" />
            <Array as="points">
              <mxPoint x="530" y="1042.5" />
              <mxPoint x="670" y="1042.5" />
              <mxPoint x="670" y="122.5" />
            </Array>
          </mxGeometry>
        </mxCell>
        <mxCell id="kF8S6U2vxt8Kwid--zTk-12" value="" style="edgeStyle=orthogonalEdgeStyle;rounded=0;orthogonalLoop=1;jettySize=auto;html=1;entryX=0.5;entryY=1;entryDx=0;entryDy=0;exitX=0;exitY=0.5;exitDx=0;exitDy=0;" parent="kF8S6U2vxt8Kwid--zTk-197" source="kF8S6U2vxt8Kwid--zTk-17" target="kF8S6U2vxt8Kwid--zTk-10" edge="1">
          <mxGeometry relative="1" as="geometry">
            <mxPoint x="170" y="820" as="sourcePoint" />
            <mxPoint x="940" y="560" as="targetPoint" />
            <Array as="points">
              <mxPoint x="100" y="836" />
              <mxPoint x="100" y="1310" />
              <mxPoint x="2100" y="1310" />
            </Array>
          </mxGeometry>
        </mxCell>
        <mxCell id="kF8S6U2vxt8Kwid--zTk-41" value="" style="edgeStyle=orthogonalEdgeStyle;rounded=0;orthogonalLoop=1;jettySize=auto;html=1;exitX=0;exitY=0.5;exitDx=0;exitDy=0;entryX=0.5;entryY=1;entryDx=0;entryDy=0;" parent="kF8S6U2vxt8Kwid--zTk-197" source="kF8S6U2vxt8Kwid--zTk-38" target="kF8S6U2vxt8Kwid--zTk-10" edge="1">
          <mxGeometry relative="1" as="geometry">
            <mxPoint x="940" y="420" as="targetPoint" />
            <Array as="points">
              <mxPoint x="400" y="517" />
              <mxPoint x="400" y="1310" />
              <mxPoint x="2100" y="1310" />
            </Array>
          </mxGeometry>
        </mxCell>
        <mxCell id="kF8S6U2vxt8Kwid--zTk-154" value="" style="edgeStyle=orthogonalEdgeStyle;rounded=0;orthogonalLoop=1;jettySize=auto;html=1;entryX=0.5;entryY=1;entryDx=0;entryDy=0;" parent="kF8S6U2vxt8Kwid--zTk-197" source="kF8S6U2vxt8Kwid--zTk-146" target="kF8S6U2vxt8Kwid--zTk-10" edge="1">
          <mxGeometry relative="1" as="geometry">
            <mxPoint x="1430" y="825" as="targetPoint" />
            <Array as="points">
              <mxPoint x="1810" y="1101" />
              <mxPoint x="1810" y="1310" />
              <mxPoint x="2100" y="1310" />
            </Array>
          </mxGeometry>
        </mxCell>
        <mxCell id="kF8S6U2vxt8Kwid--zTk-171" value="" style="edgeStyle=orthogonalEdgeStyle;rounded=0;orthogonalLoop=1;jettySize=auto;html=1;entryX=0.5;entryY=1;entryDx=0;entryDy=0;" parent="kF8S6U2vxt8Kwid--zTk-197" source="kF8S6U2vxt8Kwid--zTk-166" target="kF8S6U2vxt8Kwid--zTk-10" edge="1">
          <mxGeometry relative="1" as="geometry">
            <mxPoint x="1630" y="220" as="targetPoint" />
            <Array as="points">
              <mxPoint x="2010" y="255" />
              <mxPoint x="2010" y="1310" />
              <mxPoint x="2100" y="1310" />
            </Array>
          </mxGeometry>
        </mxCell>
        <mxCell id="kF8S6U2vxt8Kwid--zTk-175" value="" style="edgeStyle=orthogonalEdgeStyle;rounded=0;orthogonalLoop=1;jettySize=auto;html=1;entryX=0.5;entryY=1;entryDx=0;entryDy=0;" parent="kF8S6U2vxt8Kwid--zTk-197" source="kF8S6U2vxt8Kwid--zTk-173" target="kF8S6U2vxt8Kwid--zTk-10" edge="1">
          <mxGeometry relative="1" as="geometry">
            <mxPoint x="1380" y="350" as="targetPoint" />
            <Array as="points">
              <mxPoint x="1480" y="124" />
              <mxPoint x="1480" y="1310" />
              <mxPoint x="2100" y="1310" />
            </Array>
          </mxGeometry>
        </mxCell>
        <mxCell id="IJdbN-bh61W4Vu56taIt-14" value="" style="edgeStyle=orthogonalEdgeStyle;rounded=0;orthogonalLoop=1;jettySize=auto;html=1;entryX=0;entryY=0.5;entryDx=0;entryDy=0;" edge="1" parent="kF8S6U2vxt8Kwid--zTk-197" source="kF8S6U2vxt8Kwid--zTk-24" target="kF8S6U2vxt8Kwid--zTk-27">
          <mxGeometry relative="1" as="geometry">
            <mxPoint x="167.8800000000001" y="1230" as="targetPoint" />
            <Array as="points">
              <mxPoint x="168" y="1180" />
              <mxPoint x="370" y="1180" />
              <mxPoint x="370" y="118" />
            </Array>
          </mxGeometry>
        </mxCell>
        <mxCell id="IJdbN-bh61W4Vu56taIt-50" value="" style="edgeStyle=orthogonalEdgeStyle;rounded=0;orthogonalLoop=1;jettySize=auto;html=1;fontSize=13;entryX=0;entryY=0.5;entryDx=0;entryDy=0;" edge="1" parent="kF8S6U2vxt8Kwid--zTk-197" source="kF8S6U2vxt8Kwid--zTk-128" target="kF8S6U2vxt8Kwid--zTk-143">
          <mxGeometry relative="1" as="geometry">
            <mxPoint x="1265" y="1037.5" as="targetPoint" />
            <Array as="points">
              <mxPoint x="1265" y="1010" />
              <mxPoint x="1570" y="1010" />
              <mxPoint x="1570" y="90" />
            </Array>
          </mxGeometry>
        </mxCell>
        <mxCell id="IJdbN-bh61W4Vu56taIt-54" value="" style="edgeStyle=orthogonalEdgeStyle;rounded=0;orthogonalLoop=1;jettySize=auto;html=1;fontSize=13;entryX=0;entryY=0.5;entryDx=0;entryDy=0;" edge="1" parent="kF8S6U2vxt8Kwid--zTk-197" source="kF8S6U2vxt8Kwid--zTk-132" target="kF8S6U2vxt8Kwid--zTk-143">
          <mxGeometry relative="1" as="geometry">
            <mxPoint x="1405" y="944.9999999999998" as="targetPoint" />
            <Array as="points">
              <mxPoint x="1405" y="920" />
              <mxPoint x="1570" y="920" />
              <mxPoint x="1570" y="90" />
            </Array>
          </mxGeometry>
        </mxCell>
        <mxCell id="IJdbN-bh61W4Vu56taIt-66" value="" style="edgeStyle=orthogonalEdgeStyle;rounded=0;orthogonalLoop=1;jettySize=auto;html=1;fontSize=13;entryX=0.5;entryY=1;entryDx=0;entryDy=0;" edge="1" parent="kF8S6U2vxt8Kwid--zTk-197" source="IJdbN-bh61W4Vu56taIt-61" target="kF8S6U2vxt8Kwid--zTk-10">
          <mxGeometry relative="1" as="geometry">
            <Array as="points">
              <mxPoint x="1910" y="331" />
              <mxPoint x="1910" y="1310" />
              <mxPoint x="2100" y="1310" />
            </Array>
          </mxGeometry>
        </mxCell>
      </root>
    </mxGraphModel>
  </diagram>
</mxfile>
